<svg width="220" height="68" viewBox="0 0 220 68" fill="none" xmlns="http://www.w3.org/2000/svg">
<g clip-path="url(#clip0)">
<path d="M19.9782 16.5503H6.31016V23.4377H16.6001V29.1429H6.31016V44.0998H-0.186035V10.8965H19.9782V16.5503Z" fill="black"/>
<path d="M42.897 21.0734V44.0999H36.9205V42.2495C35.0496 43.7915 32.9189 44.5625 30.4243 44.5625C26.8384 44.5625 23.9281 43.2775 21.6415 40.6562C19.6666 38.3947 18.6792 35.6706 18.6792 32.5867C18.6792 29.1944 19.7706 26.3675 22.0053 24.0545C24.2399 21.7416 26.9424 20.6108 30.1125 20.6108C32.711 20.6108 34.9976 21.3818 36.9205 22.9238V21.0734H42.897ZM36.6607 36.0303V29.143C35.2055 27.2412 33.2827 26.3161 30.8921 26.3161C29.1251 26.3161 27.6699 26.9328 26.5786 28.1664C25.4352 29.4 24.9155 30.8905 24.9155 32.5867C24.9155 34.3856 25.4872 35.8761 26.6825 37.0583C27.8258 38.2405 29.333 38.8573 31.048 38.8573C33.4386 38.8573 35.3095 37.9321 36.6607 36.0303Z" fill="black"/>
<path d="M60.5664 20.8164L59.8389 26.573C59.3711 26.4189 58.5916 26.3161 57.6042 26.3161C56.3569 26.3161 55.2136 26.6758 54.1742 27.344C53.1348 28.0636 52.4072 28.7832 51.9395 29.6055V44.0999H45.7031V21.0734H51.6796V23.3864C53.2387 21.536 55.4734 20.6108 58.4357 20.6108C58.9554 20.6108 59.631 20.6622 60.5664 20.8164Z" fill="black"/>
<path d="M77.5605 36.9041L81.0944 40.3992C79.9511 41.6842 78.5479 42.7121 76.8329 43.4317C75.1179 44.1513 73.3509 44.5111 71.532 44.5111C67.9981 44.5111 65.0878 43.4317 62.8011 41.2216C60.5144 39.0114 59.3711 36.1331 59.3711 32.5866C59.3711 29.2458 60.4105 26.4189 62.4893 24.1059C64.5681 21.7416 67.3224 20.6108 70.6485 20.6108C73.8186 20.6108 76.4171 21.7416 78.4959 24.0545C80.5747 26.3675 81.6141 29.143 81.6141 32.3811C81.6141 33.0492 81.5621 33.6146 81.4582 34.1286H65.3476C65.5035 35.7219 66.1791 37.0583 67.3744 38.0863C68.5697 39.1142 69.9729 39.6282 71.6359 39.6282C73.9746 39.5768 75.8974 38.7031 77.5605 36.9041ZM65.7114 29.6055H75.3258C75.2218 28.5262 74.7541 27.601 73.8706 26.7786C72.9871 25.9563 71.9477 25.5451 70.7524 25.5451C69.5052 25.5451 68.4138 25.9563 67.4264 26.7786C66.439 27.601 65.8673 28.5262 65.7114 29.6055Z" fill="black"/>
<path d="M90.345 55.4587H83.7969L90.2411 41.7354L79.8472 21.0732H86.7072L93.5152 34.8994L99.8035 21.0732H106.352L90.345 55.4587Z" fill="black"/>
<path d="M136.182 24.0544L142.002 22.6667C142.678 24.9282 142.99 27.1383 142.99 29.297C142.99 32.6379 142.314 35.4648 140.911 37.7778L146.42 44.0484H138.624L136.857 42.0438C134.363 43.6886 131.245 44.511 127.555 44.511C124.177 44.511 121.267 43.483 118.772 41.4784C116.278 39.4739 115.03 36.8526 115.03 33.6659C115.03 29.8624 117.005 26.5729 121.007 23.9516C119.24 21.6387 118.356 19.5314 118.356 17.5782C118.356 15.5737 119.136 13.8261 120.747 12.4384C122.358 11.0506 124.229 10.3311 126.412 10.3311C128.75 10.3311 130.673 11.0506 132.18 12.5412C133.687 14.0317 134.467 15.8821 134.467 18.0922C134.467 20.7649 133.012 23.1806 130.049 25.4422L136.494 32.7407C136.806 31.5586 136.961 30.3764 136.961 29.1942C137.013 27.6523 136.754 25.9562 136.182 24.0544ZM121.267 33.7173C121.267 35.1565 121.89 36.3386 123.086 37.3666C124.281 38.3945 125.892 38.9085 127.867 38.9085C129.842 38.9085 131.505 38.4973 132.908 37.6236L124.904 28.4747C122.514 29.7596 121.267 31.5072 121.267 33.7173ZM128.283 18.1436C128.283 17.5782 128.127 17.1156 127.763 16.7044C127.451 16.2933 126.983 16.0877 126.464 16.0877C125.944 16.0877 125.528 16.2933 125.164 16.7044C124.801 17.1156 124.645 17.5782 124.645 18.1436C124.645 19.0174 125.164 20.0967 126.256 21.2789C127.607 20.0967 128.283 19.0688 128.283 18.1436Z" fill="black"/>
<path d="M172.561 16.0875C169.391 16.0875 166.74 17.2183 164.609 19.4284C162.479 21.6386 161.387 24.3113 161.387 27.498C161.387 30.7361 162.479 33.4088 164.713 35.6189C166.896 37.7776 169.651 38.9084 172.873 38.9084C176.822 38.9084 179.992 37.3664 182.383 34.2825L186.852 38.2402C185.293 40.1934 183.319 41.7353 180.876 42.8661C178.433 43.9968 175.731 44.6136 172.769 44.6136C167.572 44.6136 163.31 42.9689 159.984 39.6794C156.658 36.3899 154.995 32.3294 154.995 27.498C154.995 22.6665 156.658 18.6061 159.984 15.3166C163.31 12.0271 167.572 10.3823 172.717 10.3823C177.602 10.3823 181.707 11.9757 184.982 15.111L180.824 19.4798C178.381 17.2183 175.679 16.0875 172.561 16.0875Z" fill="black"/>
<path d="M190.282 41.1188C187.892 38.8059 186.749 35.9789 186.749 32.6381C186.749 29.2972 187.944 26.4703 190.282 24.1059C192.621 21.7416 195.583 20.6108 199.117 20.6108C202.651 20.6108 205.562 21.793 207.952 24.1059C210.343 26.4189 211.486 29.2458 211.486 32.6381C211.486 35.9789 210.291 38.8059 207.952 41.1188C205.562 43.4317 202.651 44.5625 199.117 44.5625C195.583 44.5625 192.673 43.4317 190.282 41.1188ZM194.7 28.115C193.557 29.3486 192.985 30.8391 192.985 32.5867C192.985 34.3342 193.557 35.8247 194.7 37.0583C195.843 38.2405 197.298 38.8573 199.117 38.8573C200.884 38.8573 202.391 38.2405 203.535 37.0583C204.678 35.8761 205.25 34.3856 205.25 32.5867C205.25 30.8391 204.678 29.2972 203.535 28.115C202.391 26.8814 200.936 26.2647 199.117 26.2647C197.35 26.3161 195.843 26.8814 194.7 28.115Z" fill="black"/>
<path d="M212.837 43.3802C212.058 42.6092 211.642 41.6327 211.642 40.4505C211.642 39.2683 212.058 38.2918 212.837 37.4694C213.617 36.647 214.604 36.2358 215.8 36.2358C216.995 36.2358 217.982 36.647 218.814 37.4694C219.645 38.2918 220.061 39.2683 220.061 40.4505C220.061 41.6327 219.645 42.6092 218.814 43.3802C217.982 44.1512 216.995 44.5624 215.8 44.5624C214.656 44.5624 213.669 44.1512 212.837 43.3802Z" fill="black"/>
<path d="M0.801535 52.0157V54.5342H-0.341797V48.4692H2.25668C3.55592 48.4692 4.2835 49.1888 4.2835 50.114C4.2835 50.9364 3.81577 51.3475 3.34805 51.5531C3.71183 51.6559 4.17956 52.0157 4.17956 53.0951V53.4035C4.17956 53.8147 4.17956 54.2772 4.2835 54.5856H3.19214C3.0882 54.3286 3.0882 53.8661 3.0882 53.2493V53.1465C3.0882 52.4269 2.88032 52.0671 1.8929 52.0671H0.801535V52.0157ZM0.801535 51.0906H1.99683C2.77638 51.0906 3.14017 50.7822 3.14017 50.2168C3.14017 49.6514 2.77638 49.343 2.0488 49.343H0.801535V51.0906Z" fill="#F37427"/>
<path d="M11.3512 51.8094H8.38894V53.5569H11.663L11.5071 54.4821H7.24561V48.4685H11.4551V49.3937H8.33697V50.8842H11.2992V51.8094H11.3512Z" fill="#F37427"/>
<path d="M15.665 52.9916L15.1453 54.5335H14.002L16.1327 48.4685H17.5879L19.7706 54.5335H18.5753L18.0036 52.9916H15.665ZM17.7438 52.015C17.276 50.6272 16.9642 49.8049 16.8083 49.2909C16.6524 49.8563 16.3406 50.8328 15.9248 52.015H17.7438Z" fill="#F37427"/>
<path d="M22.3687 48.4685H23.512V53.6083H26.6302L26.4742 54.5335H22.3687V48.4685Z" fill="#F37427"/>
<path d="M37.2321 51.8094H34.2698V53.5569H37.5439L37.388 54.4821H33.1265V48.4685H37.336V49.3937H34.2178V50.8842H37.1801V51.8094H37.2321Z" fill="#F37427"/>
<path d="M41.1299 52.7861C41.2858 53.4543 41.7536 53.7627 42.5331 53.7627C43.3127 53.7627 43.6764 53.4543 43.6764 52.9403C43.6764 52.4263 43.3646 52.1693 42.2733 51.9123C40.6622 51.5525 40.2465 50.9872 40.2465 50.1648C40.2465 49.1368 41.026 48.4172 42.4292 48.4172C43.9883 48.4172 44.6119 49.291 44.7158 50.1134H43.5725C43.4686 49.7022 43.2607 49.291 42.4292 49.291C41.8055 49.291 41.4418 49.548 41.4418 50.0106C41.4418 50.4732 41.7536 50.6788 42.741 50.8844C44.508 51.2955 44.8717 51.9637 44.8717 52.7861C44.8717 53.8655 44.0402 54.585 42.4811 54.585C40.9221 54.585 40.1425 53.8141 40.0386 52.7347H41.1299V52.7861Z" fill="#F37427"/>
<path d="M48.8736 49.3937H46.9507V48.4685H51.8878V49.3937H49.9649V54.5335H48.8216V49.3937H48.8736Z" fill="#F37427"/>
<path d="M54.9018 52.9916L54.3821 54.5335H53.2388L55.3695 48.4685H56.8247L59.0074 54.5335H57.8121L57.2404 52.9916H54.9018ZM56.9286 52.015C56.4609 50.6272 56.1491 49.8049 55.9932 49.2909C55.8372 49.8563 55.5254 50.8328 55.1097 52.015H56.9286Z" fill="#F37427"/>
<path d="M62.1255 49.3937H60.2026V48.4685H65.1398V49.3937H63.2169V54.5335H62.1255V49.3937Z" fill="#F37427"/>
<path d="M71.8439 51.8094H68.8816V53.5569H72.1557L71.9998 54.4821H67.7383V48.4685H71.9478V49.3937H68.8296V50.8842H71.7919V51.8094H71.8439Z" fill="#F37427"/>
</g>
<defs>
<clipPath id="clip0">
<rect width="220" height="68" fill="white"/>
</clipPath>
</defs>
</svg>
